<?xml version="1.0" standalone="no"?>
<!DOCTYPE svg PUBLIC "-//W3C//DTD SVG 1.1//EN" "http://www.w3.org/Graphics/SVG/1.1/DTD/svg11.dtd">
<svg xmlns="http://www.w3.org/2000/svg" version="1.1">
<line  x1="87" y1="50" x2="162" y2="50" stroke="#333333" stroke-width="1" fill="none"/>
<line  x1="125" y1="50" x2="125" y2="65" stroke="#333333" stroke-width="1" fill="none"/>
<text  x="97" y="48" style="font-size:12; font-family:Dialog.plain; fill=#333333">DC_Motor</text>
<line  x1="237" y1="50" x2="312" y2="50" stroke="#333333" stroke-width="1" fill="none"/>
<line  x1="275" y1="50" x2="275" y2="65" stroke="#333333" stroke-width="1" fill="none"/>
<text  x="219" y="48" style="font-size:12; font-family:Dialog.plain; fill=#333333">Collision_avoidance</text>
<line  x1="387" y1="50" x2="462" y2="50" stroke="#333333" stroke-width="1" fill="none"/>
<line  x1="425" y1="50" x2="425" y2="65" stroke="#333333" stroke-width="1" fill="none"/>
<text  x="373" y="48" style="font-size:12; font-family:Dialog.plain; fill=#333333">Ultrasonic_Sensor</text>
<text  x="10" y="73" style="font-size:12; font-family:Dialog.plain; fill=#333333">@0</text>
<line  x1="125" y1="65" x2="125" y2="75" stroke="#333333" stroke-width="1" fill="none"/>
<rect  x="115" y="75" width="20" height="20" rx="5" ry="5" fill="#c1daf1"/>
<rect  x="115" y="75" width="20" height="20" rx="5" ry="5" fill="none" stroke="#333333" stroke-width="1"/>
<text  x="117" y="91" style="font-size:12; font-family:Dialog.plain; fill=#333333">Init</text>
<line  x1="125" y1="95" x2="125" y2="105" stroke="#333333" stroke-width="1" fill="none"/>
<line  x1="275" y1="65" x2="275" y2="105" stroke="#333333" stroke-width="1" fill="none"/>
<line  x1="425" y1="65" x2="425" y2="105" stroke="#333333" stroke-width="1" fill="none"/>
<line  x1="125" y1="105" x2="125" y2="115" stroke="#333333" stroke-width="1" fill="none"/>
<rect  x="113" y="115" width="24" height="20" rx="5" ry="5" fill="#c1daf1"/>
<rect  x="113" y="115" width="24" height="20" rx="5" ry="5" fill="none" stroke="#333333" stroke-width="1"/>
<text  x="115" y="131" style="font-size:12; font-family:Dialog.plain; fill=#333333">Idle</text>
<line  x1="125" y1="135" x2="125" y2="145" stroke="#333333" stroke-width="1" fill="none"/>
<line  x1="275" y1="105" x2="275" y2="145" stroke="#333333" stroke-width="1" fill="none"/>
<line  x1="425" y1="105" x2="425" y2="145" stroke="#333333" stroke-width="1" fill="none"/>
<line  x1="275" y1="145" x2="275" y2="155" stroke="#333333" stroke-width="1" fill="none"/>
<rect  x="253" y="155" width="45" height="20" rx="5" ry="5" fill="#c1daf1"/>
<rect  x="253" y="155" width="45" height="20" rx="5" ry="5" fill="none" stroke="#333333" stroke-width="1"/>
<text  x="255" y="171" style="font-size:12; font-family:Dialog.plain; fill=#333333">Waiting</text>
<line  x1="275" y1="175" x2="275" y2="185" stroke="#333333" stroke-width="1" fill="none"/>
<line  x1="125" y1="145" x2="125" y2="185" stroke="#333333" stroke-width="1" fill="none"/>
<line  x1="425" y1="145" x2="425" y2="185" stroke="#333333" stroke-width="1" fill="none"/>
<line  x1="425" y1="185" x2="425" y2="195" stroke="#333333" stroke-width="1" fill="none"/>
<rect  x="415" y="195" width="20" height="20" rx="5" ry="5" fill="#c1daf1"/>
<rect  x="415" y="195" width="20" height="20" rx="5" ry="5" fill="none" stroke="#333333" stroke-width="1"/>
<text  x="417" y="211" style="font-size:12; font-family:Dialog.plain; fill=#333333">Init</text>
<line  x1="425" y1="215" x2="425" y2="225" stroke="#333333" stroke-width="1" fill="none"/>
<line  x1="125" y1="185" x2="125" y2="225" stroke="#333333" stroke-width="1" fill="none"/>
<line  x1="275" y1="185" x2="275" y2="225" stroke="#333333" stroke-width="1" fill="none"/>
<line  x1="425" y1="225" x2="425" y2="235" stroke="#333333" stroke-width="1" fill="none"/>
<rect  x="410" y="235" width="31" height="20" rx="5" ry="5" fill="#c1daf1"/>
<rect  x="410" y="235" width="31" height="20" rx="5" ry="5" fill="none" stroke="#333333" stroke-width="1"/>
<text  x="412" y="251" style="font-size:12; font-family:Dialog.plain; fill=#333333">Busy</text>
<line  x1="425" y1="255" x2="425" y2="265" stroke="#333333" stroke-width="1" fill="none"/>
<line  x1="125" y1="225" x2="125" y2="265" stroke="#333333" stroke-width="1" fill="none"/>
<line  x1="275" y1="225" x2="275" y2="265" stroke="#333333" stroke-width="1" fill="none"/>
<line  x1="425" y1="265" x2="425" y2="275" stroke="#333333" stroke-width="1" fill="none"/>
<rect  x="385" y="275" width="80" height="20" rx="5" ry="5" fill="#ffffff"/>
<rect  x="385" y="275" width="80" height="20" rx="5" ry="5" fill="none" stroke="#333333" stroke-width="1"/>
<text  x="387" y="291" style="font-size:12; font-family:Dialog.plain; fill=#333333">Distance = 46</text>
<line  x1="425" y1="295" x2="425" y2="305" stroke="#333333" stroke-width="1" fill="none"/>
<line  x1="125" y1="265" x2="125" y2="305" stroke="#333333" stroke-width="1" fill="none"/>
<line  x1="275" y1="265" x2="275" y2="305" stroke="#333333" stroke-width="1" fill="none"/>
<line  x1="275" y1="314" x2="125" y2="314" stroke="#80b4cd" stroke-width="1" fill="none"/>
<line  x1="275" y1="315" x2="125" y2="315" stroke="#333333" stroke-width="1" fill="none"/>
<polygon  points="125,315 133,310 133,319 " fill="#333333"/>
<polygon  points="125,315 133,310 133,319 " fill="none" stroke="#333333" stroke-width="1"/>
<text  x="165" y="313" style="font-size:12; font-family:Dialog.plain; fill=#333333">DC_Motor(0)</text>
<line  x1="125" y1="305" x2="125" y2="325" stroke="#333333" stroke-width="1" fill="none"/>
<line  x1="275" y1="305" x2="275" y2="325" stroke="#333333" stroke-width="1" fill="none"/>
<line  x1="425" y1="305" x2="425" y2="325" stroke="#333333" stroke-width="1" fill="none"/>
<line  x1="125" y1="325" x2="125" y2="335" stroke="#333333" stroke-width="1" fill="none"/>
<rect  x="110" y="335" width="31" height="20" rx="5" ry="5" fill="#c1daf1"/>
<rect  x="110" y="335" width="31" height="20" rx="5" ry="5" fill="none" stroke="#333333" stroke-width="1"/>
<text  x="112" y="351" style="font-size:12; font-family:Dialog.plain; fill=#333333">Busy</text>
<line  x1="125" y1="355" x2="125" y2="365" stroke="#333333" stroke-width="1" fill="none"/>
<line  x1="275" y1="325" x2="275" y2="365" stroke="#333333" stroke-width="1" fill="none"/>
<line  x1="425" y1="325" x2="425" y2="365" stroke="#333333" stroke-width="1" fill="none"/>
<line  x1="125" y1="365" x2="125" y2="375" stroke="#333333" stroke-width="1" fill="none"/>
<rect  x="113" y="375" width="24" height="20" rx="5" ry="5" fill="#c1daf1"/>
<rect  x="113" y="375" width="24" height="20" rx="5" ry="5" fill="none" stroke="#333333" stroke-width="1"/>
<text  x="115" y="391" style="font-size:12; font-family:Dialog.plain; fill=#333333">Idle</text>
<line  x1="125" y1="395" x2="125" y2="405" stroke="#333333" stroke-width="1" fill="none"/>
<line  x1="275" y1="365" x2="275" y2="405" stroke="#333333" stroke-width="1" fill="none"/>
<line  x1="425" y1="365" x2="425" y2="405" stroke="#333333" stroke-width="1" fill="none"/>
<line  x1="425" y1="414" x2="275" y2="414" stroke="#80b4cd" stroke-width="1" fill="none"/>
<line  x1="425" y1="415" x2="275" y2="415" stroke="#333333" stroke-width="1" fill="none"/>
<polygon  points="275,415 283,410 283,419 " fill="#333333"/>
<polygon  points="275,415 283,410 283,419 " fill="none" stroke="#333333" stroke-width="1"/>
<text  x="290" y="413" style="font-size:12; font-family:Dialog.plain; fill=#333333">US_Get_Distance(46)</text>
<line  x1="275" y1="405" x2="275" y2="425" stroke="#333333" stroke-width="1" fill="none"/>
<line  x1="125" y1="405" x2="125" y2="425" stroke="#333333" stroke-width="1" fill="none"/>
<line  x1="425" y1="405" x2="425" y2="425" stroke="#333333" stroke-width="1" fill="none"/>
<line  x1="425" y1="425" x2="425" y2="435" stroke="#333333" stroke-width="1" fill="none"/>
<rect  x="410" y="435" width="31" height="20" rx="5" ry="5" fill="#c1daf1"/>
<rect  x="410" y="435" width="31" height="20" rx="5" ry="5" fill="none" stroke="#333333" stroke-width="1"/>
<text  x="412" y="451" style="font-size:12; font-family:Dialog.plain; fill=#333333">Busy</text>
<line  x1="425" y1="455" x2="425" y2="465" stroke="#333333" stroke-width="1" fill="none"/>
<line  x1="125" y1="425" x2="125" y2="465" stroke="#333333" stroke-width="1" fill="none"/>
<line  x1="275" y1="425" x2="275" y2="465" stroke="#333333" stroke-width="1" fill="none"/>
<line  x1="275" y1="465" x2="275" y2="475" stroke="#333333" stroke-width="1" fill="none"/>
<rect  x="245" y="475" width="61" height="20" rx="5" ry="5" fill="#c1daf1"/>
<rect  x="245" y="475" width="61" height="20" rx="5" ry="5" fill="none" stroke="#333333" stroke-width="1"/>
<text  x="247" y="491" style="font-size:12; font-family:Dialog.plain; fill=#333333">choice__1</text>
<line  x1="275" y1="495" x2="275" y2="505" stroke="#333333" stroke-width="1" fill="none"/>
<line  x1="125" y1="465" x2="125" y2="505" stroke="#333333" stroke-width="1" fill="none"/>
<line  x1="425" y1="465" x2="425" y2="505" stroke="#333333" stroke-width="1" fill="none"/>
<rect  x="245" y="505" width="60" height="20" rx="5" ry="5" fill="#ffffff"/>
<rect  x="245" y="505" width="60" height="20" rx="5" ry="5" fill="none" stroke="#333333" stroke-width="1"/>
<text  x="247" y="521" style="font-size:12; font-family:Dialog.plain; fill=#7710f3">Speed = 0</text>
<line  x1="275" y1="525" x2="275" y2="535" stroke="#333333" stroke-width="1" fill="none"/>
<line  x1="125" y1="505" x2="125" y2="535" stroke="#333333" stroke-width="1" fill="none"/>
<line  x1="425" y1="505" x2="425" y2="535" stroke="#333333" stroke-width="1" fill="none"/>
<line  x1="275" y1="535" x2="275" y2="545" stroke="#333333" stroke-width="1" fill="none"/>
<rect  x="253" y="545" width="45" height="20" rx="5" ry="5" fill="#c1daf1"/>
<rect  x="253" y="545" width="45" height="20" rx="5" ry="5" fill="none" stroke="#333333" stroke-width="1"/>
<text  x="255" y="561" style="font-size:12; font-family:Dialog.plain; fill=#333333">Waiting</text>
<line  x1="275" y1="565" x2="275" y2="575" stroke="#333333" stroke-width="1" fill="none"/>
<line  x1="125" y1="535" x2="125" y2="575" stroke="#333333" stroke-width="1" fill="none"/>
<line  x1="425" y1="535" x2="425" y2="575" stroke="#333333" stroke-width="1" fill="none"/>
<line  x1="275" y1="584" x2="125" y2="584" stroke="#80b4cd" stroke-width="1" fill="none"/>
<line  x1="275" y1="585" x2="125" y2="585" stroke="#333333" stroke-width="1" fill="none"/>
<polygon  points="125,585 133,580 133,589 " fill="#333333"/>
<polygon  points="125,585 133,580 133,589 " fill="none" stroke="#333333" stroke-width="1"/>
<text  x="165" y="583" style="font-size:12; font-family:Dialog.plain; fill=#333333">DC_Motor(0)</text>
<line  x1="125" y1="575" x2="125" y2="595" stroke="#333333" stroke-width="1" fill="none"/>
<line  x1="275" y1="575" x2="275" y2="595" stroke="#333333" stroke-width="1" fill="none"/>
<line  x1="425" y1="575" x2="425" y2="595" stroke="#333333" stroke-width="1" fill="none"/>
<line  x1="125" y1="595" x2="125" y2="605" stroke="#333333" stroke-width="1" fill="none"/>
<rect  x="110" y="605" width="31" height="20" rx="5" ry="5" fill="#c1daf1"/>
<rect  x="110" y="605" width="31" height="20" rx="5" ry="5" fill="none" stroke="#333333" stroke-width="1"/>
<text  x="112" y="621" style="font-size:12; font-family:Dialog.plain; fill=#333333">Busy</text>
<line  x1="125" y1="625" x2="125" y2="635" stroke="#333333" stroke-width="1" fill="none"/>
<line  x1="275" y1="595" x2="275" y2="635" stroke="#333333" stroke-width="1" fill="none"/>
<line  x1="425" y1="595" x2="425" y2="635" stroke="#333333" stroke-width="1" fill="none"/>
<line  x1="125" y1="635" x2="125" y2="645" stroke="#333333" stroke-width="1" fill="none"/>
<rect  x="113" y="645" width="24" height="20" rx="5" ry="5" fill="#c1daf1"/>
<rect  x="113" y="645" width="24" height="20" rx="5" ry="5" fill="none" stroke="#333333" stroke-width="1"/>
<text  x="115" y="661" style="font-size:12; font-family:Dialog.plain; fill=#333333">Idle</text>
<line  x1="125" y1="665" x2="125" y2="675" stroke="#333333" stroke-width="1" fill="none"/>
<line  x1="275" y1="635" x2="275" y2="675" stroke="#333333" stroke-width="1" fill="none"/>
<line  x1="425" y1="635" x2="425" y2="675" stroke="#333333" stroke-width="1" fill="none"/>
<line  x1="425" y1="675" x2="425" y2="685" stroke="#333333" stroke-width="1" fill="none"/>
<rect  x="385" y="685" width="80" height="20" rx="5" ry="5" fill="#ffffff"/>
<rect  x="385" y="685" width="80" height="20" rx="5" ry="5" fill="none" stroke="#333333" stroke-width="1"/>
<text  x="387" y="701" style="font-size:12; font-family:Dialog.plain; fill=#333333">Distance = 53</text>
<line  x1="425" y1="705" x2="425" y2="715" stroke="#333333" stroke-width="1" fill="none"/>
<line  x1="125" y1="675" x2="125" y2="715" stroke="#333333" stroke-width="1" fill="none"/>
<line  x1="275" y1="675" x2="275" y2="715" stroke="#333333" stroke-width="1" fill="none"/>
<line  x1="425" y1="724" x2="275" y2="724" stroke="#80b4cd" stroke-width="1" fill="none"/>
<line  x1="425" y1="725" x2="275" y2="725" stroke="#333333" stroke-width="1" fill="none"/>
<polygon  points="275,725 283,720 283,729 " fill="#333333"/>
<polygon  points="275,725 283,720 283,729 " fill="none" stroke="#333333" stroke-width="1"/>
<text  x="290" y="723" style="font-size:12; font-family:Dialog.plain; fill=#333333">US_Get_Distance(53)</text>
<line  x1="275" y1="715" x2="275" y2="735" stroke="#333333" stroke-width="1" fill="none"/>
<line  x1="125" y1="715" x2="125" y2="735" stroke="#333333" stroke-width="1" fill="none"/>
<line  x1="425" y1="715" x2="425" y2="735" stroke="#333333" stroke-width="1" fill="none"/>
<line  x1="425" y1="735" x2="425" y2="745" stroke="#333333" stroke-width="1" fill="none"/>
<rect  x="410" y="745" width="31" height="20" rx="5" ry="5" fill="#c1daf1"/>
<rect  x="410" y="745" width="31" height="20" rx="5" ry="5" fill="none" stroke="#333333" stroke-width="1"/>
<text  x="412" y="761" style="font-size:12; font-family:Dialog.plain; fill=#333333">Busy</text>
<line  x1="425" y1="765" x2="425" y2="775" stroke="#333333" stroke-width="1" fill="none"/>
<line  x1="125" y1="735" x2="125" y2="775" stroke="#333333" stroke-width="1" fill="none"/>
<line  x1="275" y1="735" x2="275" y2="775" stroke="#333333" stroke-width="1" fill="none"/>
<line  x1="275" y1="775" x2="275" y2="785" stroke="#333333" stroke-width="1" fill="none"/>
<rect  x="245" y="785" width="61" height="20" rx="5" ry="5" fill="#c1daf1"/>
<rect  x="245" y="785" width="61" height="20" rx="5" ry="5" fill="none" stroke="#333333" stroke-width="1"/>
<text  x="247" y="801" style="font-size:12; font-family:Dialog.plain; fill=#333333">choice__1</text>
<line  x1="275" y1="805" x2="275" y2="815" stroke="#333333" stroke-width="1" fill="none"/>
<line  x1="125" y1="775" x2="125" y2="815" stroke="#333333" stroke-width="1" fill="none"/>
<line  x1="425" y1="775" x2="425" y2="815" stroke="#333333" stroke-width="1" fill="none"/>
<rect  x="242" y="815" width="67" height="20" rx="5" ry="5" fill="#ffffff"/>
<rect  x="242" y="815" width="67" height="20" rx="5" ry="5" fill="none" stroke="#333333" stroke-width="1"/>
<text  x="244" y="831" style="font-size:12; font-family:Dialog.plain; fill=#7710f3">Speed = 30</text>
<line  x1="275" y1="835" x2="275" y2="845" stroke="#333333" stroke-width="1" fill="none"/>
<line  x1="125" y1="815" x2="125" y2="845" stroke="#333333" stroke-width="1" fill="none"/>
<line  x1="425" y1="815" x2="425" y2="845" stroke="#333333" stroke-width="1" fill="none"/>
<line  x1="275" y1="845" x2="275" y2="855" stroke="#333333" stroke-width="1" fill="none"/>
<rect  x="254" y="855" width="42" height="20" rx="5" ry="5" fill="#c1daf1"/>
<rect  x="254" y="855" width="42" height="20" rx="5" ry="5" fill="none" stroke="#333333" stroke-width="1"/>
<text  x="256" y="871" style="font-size:12; font-family:Dialog.plain; fill=#333333">Driving</text>
<line  x1="275" y1="875" x2="275" y2="885" stroke="#333333" stroke-width="1" fill="none"/>
<line  x1="125" y1="845" x2="125" y2="885" stroke="#333333" stroke-width="1" fill="none"/>
<line  x1="425" y1="845" x2="425" y2="885" stroke="#333333" stroke-width="1" fill="none"/>
<line  x1="275" y1="894" x2="125" y2="894" stroke="#80b4cd" stroke-width="1" fill="none"/>
<line  x1="275" y1="895" x2="125" y2="895" stroke="#333333" stroke-width="1" fill="none"/>
<polygon  points="125,895 133,890 133,899 " fill="#333333"/>
<polygon  points="125,895 133,890 133,899 " fill="none" stroke="#333333" stroke-width="1"/>
<text  x="162" y="893" style="font-size:12; font-family:Dialog.plain; fill=#333333">DC_Motor(30)</text>
<line  x1="125" y1="885" x2="125" y2="905" stroke="#333333" stroke-width="1" fill="none"/>
<line  x1="275" y1="885" x2="275" y2="905" stroke="#333333" stroke-width="1" fill="none"/>
<line  x1="425" y1="885" x2="425" y2="905" stroke="#333333" stroke-width="1" fill="none"/>
<line  x1="125" y1="905" x2="125" y2="915" stroke="#333333" stroke-width="1" fill="none"/>
<rect  x="110" y="915" width="31" height="20" rx="5" ry="5" fill="#c1daf1"/>
<rect  x="110" y="915" width="31" height="20" rx="5" ry="5" fill="none" stroke="#333333" stroke-width="1"/>
<text  x="112" y="931" style="font-size:12; font-family:Dialog.plain; fill=#333333">Busy</text>
<line  x1="125" y1="935" x2="125" y2="945" stroke="#333333" stroke-width="1" fill="none"/>
<line  x1="275" y1="905" x2="275" y2="945" stroke="#333333" stroke-width="1" fill="none"/>
<line  x1="425" y1="905" x2="425" y2="945" stroke="#333333" stroke-width="1" fill="none"/>
<line  x1="125" y1="945" x2="125" y2="955" stroke="#333333" stroke-width="1" fill="none"/>
<rect  x="113" y="955" width="24" height="20" rx="5" ry="5" fill="#c1daf1"/>
<rect  x="113" y="955" width="24" height="20" rx="5" ry="5" fill="none" stroke="#333333" stroke-width="1"/>
<text  x="115" y="971" style="font-size:12; font-family:Dialog.plain; fill=#333333">Idle</text>
<line  x1="125" y1="975" x2="125" y2="985" stroke="#333333" stroke-width="1" fill="none"/>
<line  x1="275" y1="945" x2="275" y2="985" stroke="#333333" stroke-width="1" fill="none"/>
<line  x1="425" y1="945" x2="425" y2="985" stroke="#333333" stroke-width="1" fill="none"/>
<line  x1="425" y1="985" x2="425" y2="995" stroke="#333333" stroke-width="1" fill="none"/>
<rect  x="385" y="995" width="80" height="20" rx="5" ry="5" fill="#ffffff"/>
<rect  x="385" y="995" width="80" height="20" rx="5" ry="5" fill="none" stroke="#333333" stroke-width="1"/>
<text  x="387" y="1011" style="font-size:12; font-family:Dialog.plain; fill=#333333">Distance = 53</text>
<line  x1="425" y1="1015" x2="425" y2="1025" stroke="#333333" stroke-width="1" fill="none"/>
<line  x1="125" y1="985" x2="125" y2="1025" stroke="#333333" stroke-width="1" fill="none"/>
<line  x1="275" y1="985" x2="275" y2="1025" stroke="#333333" stroke-width="1" fill="none"/>
<line  x1="425" y1="1034" x2="275" y2="1034" stroke="#80b4cd" stroke-width="1" fill="none"/>
<line  x1="425" y1="1035" x2="275" y2="1035" stroke="#333333" stroke-width="1" fill="none"/>
<polygon  points="275,1035 283,1030 283,1039 " fill="#333333"/>
<polygon  points="275,1035 283,1030 283,1039 " fill="none" stroke="#333333" stroke-width="1"/>
<text  x="290" y="1033" style="font-size:12; font-family:Dialog.plain; fill=#333333">US_Get_Distance(53)</text>
<line  x1="275" y1="1025" x2="275" y2="1045" stroke="#333333" stroke-width="1" fill="none"/>
<line  x1="125" y1="1025" x2="125" y2="1045" stroke="#333333" stroke-width="1" fill="none"/>
<line  x1="425" y1="1025" x2="425" y2="1045" stroke="#333333" stroke-width="1" fill="none"/>
<line  x1="275" y1="1045" x2="275" y2="1055" stroke="#333333" stroke-width="1" fill="none"/>
<rect  x="245" y="1055" width="61" height="20" rx="5" ry="5" fill="#c1daf1"/>
<rect  x="245" y="1055" width="61" height="20" rx="5" ry="5" fill="none" stroke="#333333" stroke-width="1"/>
<text  x="247" y="1071" style="font-size:12; font-family:Dialog.plain; fill=#333333">choice__0</text>
<line  x1="275" y1="1075" x2="275" y2="1085" stroke="#333333" stroke-width="1" fill="none"/>
<line  x1="125" y1="1045" x2="125" y2="1085" stroke="#333333" stroke-width="1" fill="none"/>
<line  x1="425" y1="1045" x2="425" y2="1085" stroke="#333333" stroke-width="1" fill="none"/>
<line  x1="425" y1="1085" x2="425" y2="1095" stroke="#333333" stroke-width="1" fill="none"/>
<rect  x="410" y="1095" width="31" height="20" rx="5" ry="5" fill="#c1daf1"/>
<rect  x="410" y="1095" width="31" height="20" rx="5" ry="5" fill="none" stroke="#333333" stroke-width="1"/>
<text  x="412" y="1111" style="font-size:12; font-family:Dialog.plain; fill=#333333">Busy</text>
<line  x1="425" y1="1115" x2="425" y2="1125" stroke="#333333" stroke-width="1" fill="none"/>
<line  x1="125" y1="1085" x2="125" y2="1125" stroke="#333333" stroke-width="1" fill="none"/>
<line  x1="275" y1="1085" x2="275" y2="1125" stroke="#333333" stroke-width="1" fill="none"/>
<line  x1="425" y1="1125" x2="425" y2="1135" stroke="#333333" stroke-width="1" fill="none"/>
<rect  x="385" y="1135" width="80" height="20" rx="5" ry="5" fill="#ffffff"/>
<rect  x="385" y="1135" width="80" height="20" rx="5" ry="5" fill="none" stroke="#333333" stroke-width="1"/>
<text  x="387" y="1151" style="font-size:12; font-family:Dialog.plain; fill=#333333">Distance = 47</text>
<line  x1="425" y1="1155" x2="425" y2="1165" stroke="#333333" stroke-width="1" fill="none"/>
<line  x1="125" y1="1125" x2="125" y2="1165" stroke="#333333" stroke-width="1" fill="none"/>
<line  x1="275" y1="1125" x2="275" y2="1165" stroke="#333333" stroke-width="1" fill="none"/>
<rect  x="242" y="1165" width="67" height="20" rx="5" ry="5" fill="#ffffff"/>
<rect  x="242" y="1165" width="67" height="20" rx="5" ry="5" fill="none" stroke="#333333" stroke-width="1"/>
<text  x="244" y="1181" style="font-size:12; font-family:Dialog.plain; fill=#7710f3">Speed = 30</text>
<line  x1="275" y1="1185" x2="275" y2="1195" stroke="#333333" stroke-width="1" fill="none"/>
<line  x1="125" y1="1165" x2="125" y2="1195" stroke="#333333" stroke-width="1" fill="none"/>
<line  x1="425" y1="1165" x2="425" y2="1195" stroke="#333333" stroke-width="1" fill="none"/>
<line  x1="275" y1="1195" x2="275" y2="1205" stroke="#333333" stroke-width="1" fill="none"/>
<rect  x="254" y="1205" width="42" height="20" rx="5" ry="5" fill="#c1daf1"/>
<rect  x="254" y="1205" width="42" height="20" rx="5" ry="5" fill="none" stroke="#333333" stroke-width="1"/>
<text  x="256" y="1221" style="font-size:12; font-family:Dialog.plain; fill=#333333">Driving</text>
<line  x1="275" y1="1225" x2="275" y2="1235" stroke="#333333" stroke-width="1" fill="none"/>
<line  x1="125" y1="1195" x2="125" y2="1235" stroke="#333333" stroke-width="1" fill="none"/>
<line  x1="425" y1="1195" x2="425" y2="1235" stroke="#333333" stroke-width="1" fill="none"/>
<text  x="10" y="209" style="font-size:12; font-family:Dialog.plain; fill=#7710f3">@0</text>
<text  x="751" y="209" style="font-size:12; font-family:Dialog.plain; fill=#7710f3">@0</text>
<text  x="97" y="199" style="font-size:12; font-family:Dialog.plain; fill=#7710f3">DC_Motor</text>
<text  x="114" y="213" style="font-size:12; font-family:Dialog.italic; font-style=italic; fill=#7710f3">Idle</text>
<text  x="219" y="199" style="font-size:12; font-family:Dialog.plain; fill=#7710f3">Collision_avoidance</text>
<text  x="254" y="213" style="font-size:12; font-family:Dialog.italic; font-style=italic; fill=#7710f3">Waiting</text>
<text  x="373" y="199" style="font-size:12; font-family:Dialog.plain; fill=#7710f3">Ultrasonic_Sensor</text>
<text  x="416" y="213" style="font-size:12; font-family:Dialog.italic; font-style=italic; fill=#7710f3">Init</text>
</svg>